<?xml version="1.0"?>
<svg width="436.717" height="436.717" xmlns="http://www.w3.org/2000/svg" xmlns:svg="http://www.w3.org/2000/svg">
 <g>
  <title>Layer 1</title>
  <g id="svg_1">
   <path fill="#999999" stroke="#999999" stroke-width="0" id="svg_2" d="m427.757996,194.330994c11.945007,11.940002 11.945007,31.297989 0,43.242996l-187.778992,187.785019c-5.970001,5.958008 -13.796005,8.949005 -21.622009,8.949005s-15.651001,-2.979004 -21.618988,-8.949005l-187.779007,-187.785004c-11.946,-11.944992 -11.946,-31.302994 0,-43.242996c11.943001,-11.942001 31.306,-11.942001 43.246002,0l166.151001,166.151993l166.151993,-166.151993c11.940002,-11.936005 31.309998,-11.936005 43.25,-0.000015zm-231.019989,48.06601c5.96701,5.957993 13.792999,8.94899 21.619003,8.94899s15.651993,-2.990997 21.621994,-8.94899l187.778992,-187.779003c11.945007,-11.948002 11.945007,-31.312 0,-43.255c-11.945007,-11.939 -31.309998,-11.939 -43.248993,0l-166.152008,166.151999l-166.150993,-166.151999c-11.940002,-11.939 -31.303001,-11.939 -43.246001,0c-11.946,11.943 -11.946,31.306998 0,43.255l187.778007,187.779003z"/>
  </g>
  <g id="svg_3"/>
  <g id="svg_4"/>
  <g id="svg_5"/>
  <g id="svg_6"/>
  <g id="svg_7"/>
  <g id="svg_8"/>
  <g id="svg_9"/>
  <g id="svg_10"/>
  <g id="svg_11"/>
  <g id="svg_12"/>
  <g id="svg_13"/>
  <g id="svg_14"/>
  <g id="svg_15"/>
  <g id="svg_16"/>
  <g id="svg_17"/>
 </g>

</svg>